<svg width="89" height="90" viewBox="0 0 89 90" fill="none" xmlns="http://www.w3.org/2000/svg">
<path d="M35 23H37L37.4 25M39 33H49L53 25H37.4M39 33L37.4 25M39 33L36.7071 35.2929C36.0771 35.9229 36.5233 37 37.4142 37H49M49 37C47.8954 37 47 37.8954 47 39C47 40.1046 47.8954 41 49 41C50.1046 41 51 40.1046 51 39C51 37.8954 50.1046 37 49 37ZM41 39C41 40.1046 40.1046 41 39 41C37.8954 41 37 40.1046 37 39C37 37.8954 37.8954 37 39 37C40.1046 37 41 37.8954 41 39Z" stroke="#6B6B6B" stroke-width="2" stroke-linecap="round" stroke-linejoin="round"/>
<path d="M11.25 62.9873C11.1224 62.9873 10.8444 62.9577 10.416 62.8984C10.3796 63.5866 10.3613 64.792 10.3613 66.5146C10.3613 66.6969 10.3021 66.8519 10.1836 66.9795C10.0651 67.1025 9.91699 67.1641 9.73926 67.1641C9.55697 67.1641 9.40658 67.1025 9.28809 66.9795C9.1696 66.8519 9.11035 66.6969 9.11035 66.5146V64.5049C9.11035 63.835 9.15137 62.8916 9.2334 61.6748C9.32454 60.3577 9.37467 59.4144 9.38379 58.8447V57.9014C9.38379 57.4502 9.41113 57.1221 9.46582 56.917C9.57064 56.516 9.79395 56.3428 10.1357 56.3975C10.2816 56.3519 10.4889 56.3177 10.7578 56.2949C11.0267 56.2721 11.3571 56.2607 11.749 56.2607C12.583 56.2607 13.3646 56.5456 14.0938 57.1152C14.8958 57.7441 15.2969 58.5007 15.2969 59.3848C15.2969 60.515 14.8685 61.415 14.0117 62.085C13.2461 62.6865 12.3255 62.9873 11.25 62.9873ZM11.5918 57.5596C11.3913 57.5596 11.2113 57.5641 11.0518 57.5732C10.8968 57.5824 10.7646 57.596 10.6553 57.6143L10.6416 58.8721L10.498 61.5928L11.25 61.6816C12.0156 61.6816 12.6605 61.488 13.1846 61.1006C13.7588 60.6768 14.0459 60.1048 14.0459 59.3848C14.0459 58.8743 13.7725 58.4346 13.2256 58.0654C12.7197 57.7282 12.1751 57.5596 11.5918 57.5596ZM17.9697 58.3457C17.751 58.3457 17.5618 58.2682 17.4023 58.1133C17.2428 57.9583 17.1631 57.7715 17.1631 57.5527C17.1631 57.334 17.2428 57.1471 17.4023 56.9922C17.5618 56.8372 17.751 56.7598 17.9697 56.7598C18.1885 56.7598 18.3753 56.8372 18.5303 56.9922C18.6898 57.1471 18.7695 57.334 18.7695 57.5527C18.7695 57.7715 18.6898 57.9583 18.5303 58.1133C18.3753 58.2682 18.1885 58.3457 17.9697 58.3457ZM18.2773 63.8965C18.2773 64.1699 18.2842 64.5801 18.2979 65.127C18.3161 65.6693 18.3252 66.0771 18.3252 66.3506C18.3252 66.5511 18.2637 66.7152 18.1406 66.8428C18.0176 66.9704 17.8558 67.0342 17.6553 67.0342C17.4593 67.0342 17.2975 66.9704 17.1699 66.8428C17.0469 66.7152 16.9854 66.5511 16.9854 66.3506C16.9854 66.0771 16.9762 65.6693 16.958 65.127C16.9443 64.5801 16.9375 64.1699 16.9375 63.8965C16.9375 63.4681 16.9603 62.9349 17.0059 62.2969C17.0514 61.6543 17.0742 61.1188 17.0742 60.6904C17.0742 60.4854 17.1357 60.319 17.2588 60.1914C17.3864 60.0638 17.5482 60 17.7441 60C17.9401 60 18.0996 60.0638 18.2227 60.1914C18.3503 60.319 18.4141 60.4854 18.4141 60.6904C18.4141 61.1188 18.3913 61.6543 18.3457 62.2969C18.3001 62.9349 18.2773 63.4681 18.2773 63.8965ZM29.2695 67.5674C28.8958 67.5674 28.6771 67.3691 28.6133 66.9727C28.5312 66.4714 28.4492 65.765 28.3672 64.8535L28.1348 62.7344C28.0892 62.4199 28.0117 62.1123 27.9023 61.8115C27.7474 61.4014 27.5788 61.1963 27.3965 61.1963C27.2279 61.1963 26.9134 61.3398 26.4531 61.627C26.0156 61.8913 25.7285 62.1032 25.5918 62.2627C25.5872 62.6911 25.5986 63.1195 25.626 63.5479L25.8311 65.373C25.9176 66.0931 25.9609 66.6878 25.9609 67.1572C25.9609 67.3577 25.8971 67.5218 25.7695 67.6494C25.6465 67.7816 25.487 67.8477 25.291 67.8477C25.0951 67.8477 24.9333 67.7816 24.8057 67.6494C24.6826 67.5218 24.6211 67.3577 24.6211 67.1572C24.6211 66.6058 24.5641 65.7923 24.4502 64.7168C24.3408 63.6367 24.2861 62.821 24.2861 62.2695C24.2861 61.7865 24.2178 61.4105 24.0811 61.1416C23.762 61.2874 23.4385 61.5244 23.1104 61.8525L22.3037 62.7549C22.2308 62.8643 22.1146 63.0078 21.9551 63.1855C21.9551 63.459 21.93 63.8623 21.8799 64.3955C21.8298 64.9287 21.8047 65.3229 21.8047 65.5781C21.8047 65.7148 21.8252 65.9062 21.8662 66.1523C21.9118 66.3984 21.9346 66.5762 21.9346 66.6855C21.9346 66.8724 21.8639 67.0296 21.7227 67.1572C21.5859 67.2848 21.4242 67.3486 21.2373 67.3486C20.7223 67.3486 20.4648 66.763 20.4648 65.5918C20.4648 65.3184 20.4899 64.9105 20.54 64.3682C20.5902 63.8258 20.6152 63.418 20.6152 63.1445C20.6152 62.903 20.5924 62.5407 20.5469 62.0576C20.5059 61.5745 20.4854 61.21 20.4854 60.9639C20.4854 59.9294 20.7178 59.4121 21.1826 59.4121C21.3604 59.4121 21.5221 59.4896 21.668 59.6445C21.8184 59.7995 21.8936 59.9681 21.8936 60.1504C21.8936 60.237 21.8822 60.3714 21.8594 60.5537C21.8366 60.736 21.8252 60.875 21.8252 60.9707L21.8389 61.6885C22.0758 61.2008 22.4245 60.7611 22.8848 60.3691C23.3451 59.9727 23.737 59.7744 24.0605 59.7744C24.776 59.7744 25.2682 60.1299 25.5371 60.8408C25.7878 60.5081 26.0863 60.2598 26.4326 60.0957C26.779 59.9271 27.1755 59.8428 27.6221 59.8428C28.3831 59.8428 28.9027 60.2529 29.1807 61.0732C29.2354 61.2373 29.3288 61.8776 29.4609 62.9941C29.5885 63.778 29.7526 65.0837 29.9531 66.9111C29.9668 67.0934 29.9053 67.2484 29.7686 67.376C29.6318 67.5036 29.4655 67.5674 29.2695 67.5674ZM34.0342 67.4033C33.2686 67.4033 32.61 67.1208 32.0586 66.5557C31.4434 65.9268 31.1198 65.0814 31.0879 64.0195C31.0605 62.9896 31.3203 62.0827 31.8672 61.2988C32.5052 60.3737 33.3939 59.9111 34.5332 59.9111C35.4447 59.9111 36.1351 60.3281 36.6045 61.1621C36.9782 61.8366 37.1582 62.6478 37.1445 63.5957C37.1309 64.6074 36.8665 65.471 36.3516 66.1865C35.7682 66.9977 34.9958 67.4033 34.0342 67.4033ZM34.4443 61.2988C33.7744 61.2943 33.2526 61.6133 32.8789 62.2559C32.5827 62.7708 32.4346 63.3587 32.4346 64.0195C32.4346 64.6803 32.6146 65.1953 32.9746 65.5645C33.2754 65.8698 33.6286 66.0225 34.0342 66.0225C34.5081 66.0225 34.916 65.8493 35.2578 65.5029C35.6452 65.1201 35.8503 64.6029 35.873 63.9512C35.9368 62.1875 35.4606 61.3034 34.4443 61.2988ZM41.082 58.3525C40.8633 58.3525 40.6742 58.2751 40.5146 58.1201C40.3597 57.9652 40.2822 57.7806 40.2822 57.5664C40.2822 57.3477 40.3597 57.1608 40.5146 57.0059C40.6742 56.8509 40.8633 56.7734 41.082 56.7734C41.3008 56.7734 41.4899 56.8509 41.6494 57.0059C41.8089 57.1608 41.8887 57.3477 41.8887 57.5664C41.8887 57.7806 41.8089 57.9652 41.6494 58.1201C41.4899 58.2751 41.3008 58.3525 41.082 58.3525ZM41.0273 68.5859C41.0319 68.0527 40.9544 66.6878 40.7949 64.4912L40.5625 60.7246C40.5625 60.4967 40.6263 60.2939 40.7539 60.1162C40.8861 59.9385 41.0524 59.8496 41.2529 59.8496C41.4079 59.8496 41.5628 59.9066 41.7178 60.0205C41.8727 60.1344 41.9548 60.2507 41.9639 60.3691L42.1895 64.3066L42.374 68.5176C42.374 69.151 42.1849 69.7253 41.8066 70.2402C41.3965 70.8008 40.8975 71.0811 40.3096 71.0811C39.3298 71.0811 38.5094 70.3268 37.8486 68.8184C37.7939 68.6953 37.7666 68.5859 37.7666 68.4902C37.7666 68.3079 37.8372 68.1507 37.9785 68.0186C38.1243 67.8864 38.2884 67.8203 38.4707 67.8203C38.7396 67.8203 39.0199 68.1165 39.3115 68.709C39.3844 68.8639 39.512 69.0872 39.6943 69.3789C39.8721 69.6068 40.0771 69.7207 40.3096 69.7207C40.5101 69.7207 40.681 69.5703 40.8223 69.2695C40.9316 69.0417 41 68.8138 41.0273 68.5859ZM45.792 58.3457C45.5732 58.3457 45.3841 58.2682 45.2246 58.1133C45.0651 57.9583 44.9854 57.7715 44.9854 57.5527C44.9854 57.334 45.0651 57.1471 45.2246 56.9922C45.3841 56.8372 45.5732 56.7598 45.792 56.7598C46.0107 56.7598 46.1976 56.8372 46.3525 56.9922C46.512 57.1471 46.5918 57.334 46.5918 57.5527C46.5918 57.7715 46.512 57.9583 46.3525 58.1133C46.1976 58.2682 46.0107 58.3457 45.792 58.3457ZM46.0996 63.8965C46.0996 64.1699 46.1064 64.5801 46.1201 65.127C46.1383 65.6693 46.1475 66.0771 46.1475 66.3506C46.1475 66.5511 46.0859 66.7152 45.9629 66.8428C45.8398 66.9704 45.6781 67.0342 45.4775 67.0342C45.2816 67.0342 45.1198 66.9704 44.9922 66.8428C44.8691 66.7152 44.8076 66.5511 44.8076 66.3506C44.8076 66.0771 44.7985 65.6693 44.7803 65.127C44.7666 64.5801 44.7598 64.1699 44.7598 63.8965C44.7598 63.4681 44.7826 62.9349 44.8281 62.2969C44.8737 61.6543 44.8965 61.1188 44.8965 60.6904C44.8965 60.4854 44.958 60.319 45.0811 60.1914C45.2087 60.0638 45.3704 60 45.5664 60C45.7624 60 45.9219 60.0638 46.0449 60.1914C46.1725 60.319 46.2363 60.4854 46.2363 60.6904C46.2363 61.1188 46.2135 61.6543 46.168 62.2969C46.1224 62.9349 46.0996 63.4681 46.0996 63.8965ZM59.1904 59.3301C58.8988 59.3301 58.68 59.1592 58.5342 58.8174C58.4066 58.5257 58.2881 58.348 58.1787 58.2842C58.083 58.234 57.846 58.209 57.4678 58.209C56.807 58.209 56.0732 58.7148 55.2666 59.7266C54.1729 61.0846 53.626 62.3721 53.626 63.5889C53.626 64.1768 53.8151 64.6826 54.1934 65.1064C54.5807 65.5439 55.0479 65.7627 55.5947 65.7627C56.0641 65.7627 56.5358 65.6419 57.0098 65.4004C57.2741 65.2637 57.6797 64.9948 58.2266 64.5938C58.4863 64.4023 58.6823 64.3066 58.8145 64.3066C59.0104 64.3066 59.1745 64.3818 59.3066 64.5322C59.4388 64.6781 59.5049 64.8421 59.5049 65.0244C59.5049 65.2295 59.4183 65.4095 59.2451 65.5645C58.042 66.6309 56.8252 67.1641 55.5947 67.1641C54.6514 67.1641 53.8538 66.8018 53.2021 66.0771C52.5732 65.3753 52.2588 64.5459 52.2588 63.5889C52.2588 62.0439 52.9059 60.4603 54.2002 58.8379C55.2803 57.4844 56.3695 56.8076 57.4678 56.8076C57.6911 56.8076 57.8916 56.819 58.0693 56.8418C58.2471 56.86 58.4043 56.8919 58.541 56.9375C58.7005 56.7051 58.9079 56.5889 59.1631 56.5889C59.4775 56.5889 59.6758 56.7962 59.7578 57.2109C59.8307 57.5801 59.8672 58.0335 59.8672 58.5713C59.8672 58.7581 59.8171 58.9222 59.7168 59.0635C59.5938 59.2412 59.4183 59.3301 59.1904 59.3301ZM66.3682 67.4512C66.2816 67.4512 66.1243 67.3509 65.8965 67.1504C65.6914 66.9635 65.5387 66.7972 65.4385 66.6514C65.001 66.8883 64.6159 67.0661 64.2832 67.1846C63.9505 67.3076 63.6725 67.3691 63.4492 67.3691C62.3828 67.3691 61.6058 67.0684 61.1182 66.4668C60.6579 65.9017 60.4277 65.0358 60.4277 63.8691C60.4277 62.7663 60.806 61.8229 61.5625 61.0391C62.3236 60.2552 63.2305 59.8633 64.2832 59.8633C64.6797 59.8633 65.124 59.9658 65.6162 60.1709C66.236 60.4261 66.5459 60.7337 66.5459 61.0938C66.5459 61.2168 66.5003 61.3262 66.4092 61.4219C66.3636 61.5951 66.3271 61.8799 66.2998 62.2764C66.277 62.6729 66.2633 63.181 66.2588 63.8008C66.2542 64.3659 66.293 64.8125 66.375 65.1406C66.4206 65.3411 66.5641 65.7422 66.8057 66.3438C66.8376 66.4258 66.89 66.5465 66.9629 66.7061L67.0039 66.8223C67.0039 67.0046 66.9401 67.1549 66.8125 67.2734C66.6849 67.3919 66.5368 67.4512 66.3682 67.4512ZM64.9463 62.7002C64.9463 62.5042 64.9577 62.2923 64.9805 62.0645C65.0078 61.832 65.0465 61.5859 65.0967 61.3262C64.9281 61.2396 64.7822 61.1758 64.6592 61.1348C64.5407 61.0938 64.445 61.0732 64.3721 61.0732C63.6657 61.0732 63.055 61.3626 62.54 61.9414C62.0296 62.5156 61.7744 63.1787 61.7744 63.9307C61.7744 64.6781 61.9066 65.2386 62.1709 65.6123C62.4352 65.986 62.8317 66.1729 63.3604 66.1729C63.7979 66.1729 64.1693 66.0931 64.4746 65.9336C64.6387 65.847 64.8688 65.6738 65.165 65.4141C65.0192 64.2064 64.9463 63.3018 64.9463 62.7002ZM73.5117 61.9482C73.4798 62.5179 73.252 62.8027 72.8281 62.8027C72.4362 62.8027 72.2402 62.5771 72.2402 62.126C72.2402 62.0394 72.2334 61.8799 72.2197 61.6475L72.1992 61.0732C71.4792 61.1598 70.9027 61.3626 70.4697 61.6816C70.0641 61.9779 69.7269 62.4245 69.458 63.0215L69.4717 66.7676C69.4717 67.2279 69.2461 67.458 68.7949 67.458C68.3939 67.458 68.1934 67.2279 68.1934 66.7676V61.9688C68.1934 61.8184 68.1979 61.5928 68.207 61.292C68.2207 60.9912 68.2275 60.7656 68.2275 60.6152C68.2275 60.1549 68.4281 59.9248 68.8291 59.9248C69.2757 59.9248 69.5013 60.3031 69.5059 61.0596C70.3809 60.2165 71.3516 59.7949 72.418 59.7949C72.7871 59.7949 73.0628 59.9339 73.2451 60.2119C73.4274 60.4899 73.5186 60.9092 73.5186 61.4697C73.5186 61.7067 73.5163 61.8662 73.5117 61.9482ZM79.4932 61.1758C79.3975 61.1758 79.2835 61.1712 79.1514 61.1621C79.0238 61.153 78.9121 61.1484 78.8164 61.1484C78.7116 61.1484 78.4017 61.1826 77.8867 61.251L78.0166 65.291L78.0234 65.5918L78.0303 65.9404C78.0485 66.9385 77.8092 67.4375 77.3125 67.4375C77.1302 67.4375 76.9707 67.3783 76.834 67.2598C76.7018 67.1413 76.6357 66.9932 76.6357 66.8154C76.6357 66.6423 76.6426 66.3825 76.6562 66.0361C76.6699 65.6898 76.6768 65.43 76.6768 65.2568L76.54 61.2646C76.2074 61.251 75.7015 61.2122 75.0225 61.1484C74.6169 61.0938 74.4141 60.8682 74.4141 60.4717C74.4141 60.2712 74.4756 60.1048 74.5986 59.9727C74.7217 59.8405 74.8789 59.7744 75.0703 59.7744L76.5059 59.8906C76.5059 59.6582 76.4945 59.3483 76.4717 58.9609C76.4535 58.569 76.4443 58.2865 76.4443 58.1133C76.4443 57.9219 76.5104 57.7646 76.6426 57.6416C76.7747 57.514 76.9365 57.4502 77.1279 57.4502C77.5381 57.4502 77.7773 57.7852 77.8457 58.4551C77.8594 58.6237 77.8662 58.8265 77.8662 59.0635L77.8525 59.46L77.8457 59.8838C78.4108 59.8109 78.7344 59.7744 78.8164 59.7744C79.2904 59.7744 79.6003 59.7972 79.7461 59.8428C80.0241 59.9339 80.1631 60.1481 80.1631 60.4854C80.1631 60.6859 80.0993 60.8522 79.9717 60.9844C79.8486 61.112 79.6891 61.1758 79.4932 61.1758Z" fill="#6B6B6B"/>
</svg>
