<svg width="24" height="25" viewBox="0 0 24 25" fill="none" xmlns="http://www.w3.org/2000/svg">
<path d="M20 17.7084V11.9293C20 11.3727 19.9995 11.0943 19.9346 10.8353C19.877 10.6058 19.7825 10.3886 19.6546 10.1923C19.5102 9.97079 19.3096 9.78712 18.9074 9.42059L14.1074 5.04559C13.3608 4.36509 12.9875 4.02501 12.5674 3.89559C12.1972 3.78155 11.8026 3.78155 11.4324 3.89559C11.0126 4.02491 10.6398 4.36467 9.89436 5.04414L5.09277 9.42059C4.69064 9.78712 4.49004 9.97079 4.3457 10.1923C4.21779 10.3886 4.12255 10.6058 4.06497 10.8353C4 11.0943 4 11.3727 4 11.9293V17.7084C4 18.6792 4 19.1643 4.15224 19.5472C4.35523 20.0577 4.74432 20.4637 5.23438 20.6752C5.60192 20.8338 6.06786 20.8338 6.99974 20.8338C7.93163 20.8338 8.39808 20.8338 8.76562 20.6752C9.25568 20.4637 9.64467 20.0578 9.84766 19.5473C9.9999 19.1644 10 18.6791 10 17.7084V16.6667C10 15.5161 10.8954 14.5834 12 14.5834C13.1046 14.5834 14 15.5161 14 16.6667V17.7084C14 18.6791 14 19.1644 14.1522 19.5473C14.3552 20.0578 14.7443 20.4637 15.2344 20.6752C15.6019 20.8338 16.0679 20.8338 16.9997 20.8338C17.9316 20.8338 18.3981 20.8338 18.7656 20.6752C19.2557 20.4637 19.6447 20.0577 19.8477 19.5472C19.9999 19.1643 20 18.6792 20 17.7084Z" fill="#1D7151" stroke="#1D7151" stroke-width="2" stroke-linecap="round" stroke-linejoin="round"/>
</svg>
