<svg width="89" height="90" viewBox="0 0 89 90" fill="none" xmlns="http://www.w3.org/2000/svg">
<rect width="89" height="90" fill="#E8F1EE"/>
<path d="M53 35.7084V29.9293C53 29.3727 52.9995 29.0943 52.9346 28.8353C52.877 28.6058 52.7825 28.3886 52.6546 28.1923C52.5102 27.9708 52.3096 27.7871 51.9074 27.4206L47.1074 23.0456C46.3608 22.3651 45.9875 22.025 45.5674 21.8956C45.1972 21.7815 44.8026 21.7815 44.4324 21.8956C44.0126 22.0249 43.6398 22.3647 42.8944 23.0441L38.0928 27.4206C37.6906 27.7871 37.49 27.9708 37.3457 28.1923C37.2178 28.3886 37.1225 28.6058 37.065 28.8353C37 29.0943 37 29.3727 37 29.9293V35.7084C37 36.6792 37 37.1643 37.1522 37.5472C37.3552 38.0577 37.7443 38.4637 38.2344 38.6752C38.6019 38.8338 39.0679 38.8338 39.9997 38.8338C40.9316 38.8338 41.3981 38.8338 41.7656 38.6752C42.2557 38.4637 42.6447 38.0578 42.8477 37.5473C42.9999 37.1644 43 36.6791 43 35.7084V34.6667C43 33.5161 43.8954 32.5834 45 32.5834C46.1046 32.5834 47 33.5161 47 34.6667V35.7084C47 36.6791 47 37.1644 47.1522 37.5473C47.3552 38.0578 47.7443 38.4637 48.2344 38.6752C48.6019 38.8338 49.0679 38.8338 49.9997 38.8338C50.9316 38.8338 51.3981 38.8338 51.7656 38.6752C52.2557 38.4637 52.6447 38.0577 52.8477 37.5472C52.9999 37.1643 53 36.6792 53 35.7084Z" stroke="#6B6B6B" stroke-width="2" stroke-linecap="round" stroke-linejoin="round"/>
<path d="M36.1123 57.3682C36.0439 57.5596 36.0098 57.8398 36.0098 58.209C36.0098 58.3457 36.0143 58.5485 36.0234 58.8174C36.0326 59.0863 36.0371 59.2891 36.0371 59.4258C36.0371 59.8815 35.9961 60.5605 35.9141 61.4629C35.8366 62.3652 35.7979 63.0443 35.7979 63.5C35.7979 63.8464 35.8229 64.3659 35.873 65.0586C35.9232 65.7513 35.9482 66.2731 35.9482 66.624C35.9482 66.8109 35.8844 66.9681 35.7568 67.0957C35.6338 67.2233 35.4788 67.2871 35.292 67.2871C35.1097 67.2871 34.9548 67.2233 34.8271 67.0957C34.6995 66.9681 34.6357 66.8109 34.6357 66.624C34.6357 66.2731 34.6107 65.7513 34.5605 65.0586C34.5104 64.3659 34.4854 63.8464 34.4854 63.5C34.4854 63.1673 34.4967 62.8301 34.5195 62.4883C33.7402 62.502 32.7764 62.6182 31.6279 62.8369L28.7568 63.3975C28.7568 63.8076 28.7158 64.391 28.6338 65.1475C28.5518 65.8994 28.5107 66.4827 28.5107 66.8975C28.5107 67.0843 28.4469 67.2415 28.3193 67.3691C28.1963 67.5013 28.0413 67.5674 27.8545 67.5674C27.6676 67.5674 27.5104 67.5013 27.3828 67.3691C27.2598 67.2415 27.1982 67.0843 27.1982 66.8975C27.1982 66.4144 27.237 65.6943 27.3145 64.7373C27.3965 63.7757 27.4375 63.0534 27.4375 62.5703C27.4375 62.3197 27.4284 61.9414 27.4102 61.4355C27.3919 60.9297 27.3828 60.5492 27.3828 60.2939C27.3828 59.9339 27.4056 59.3939 27.4512 58.6738C27.4967 57.9492 27.5195 57.4069 27.5195 57.0469C27.5195 56.8555 27.5811 56.696 27.7041 56.5684C27.8317 56.4408 27.9889 56.377 28.1758 56.377C28.3626 56.377 28.5176 56.4408 28.6406 56.5684C28.7682 56.696 28.832 56.8555 28.832 57.0469C28.832 57.4115 28.807 57.9583 28.7568 58.6875C28.7113 59.4121 28.6885 59.9567 28.6885 60.3213L28.7295 62.0508L31.6621 61.4971C32.8333 61.2783 33.82 61.1644 34.6221 61.1553C34.6722 60.5036 34.6973 59.5215 34.6973 58.209C34.6973 57.8626 34.7542 57.5117 34.8682 57.1562C35.0186 56.6686 35.2305 56.4248 35.5039 56.4248C35.6771 56.4248 35.832 56.4886 35.9688 56.6162C36.1055 56.7393 36.1738 56.8965 36.1738 57.0879C36.1738 57.1562 36.1533 57.2497 36.1123 57.3682ZM40.4326 67.4033C39.667 67.4033 39.0085 67.1208 38.457 66.5557C37.8418 65.9268 37.5182 65.0814 37.4863 64.0195C37.459 62.9896 37.7188 62.0827 38.2656 61.2988C38.9036 60.3737 39.7923 59.9111 40.9316 59.9111C41.8431 59.9111 42.5335 60.3281 43.0029 61.1621C43.3766 61.8366 43.5566 62.6478 43.543 63.5957C43.5293 64.6074 43.265 65.471 42.75 66.1865C42.1667 66.9977 41.3942 67.4033 40.4326 67.4033ZM40.8428 61.2988C40.1729 61.2943 39.651 61.6133 39.2773 62.2559C38.9811 62.7708 38.833 63.3587 38.833 64.0195C38.833 64.6803 39.013 65.1953 39.373 65.5645C39.6738 65.8698 40.027 66.0225 40.4326 66.0225C40.9066 66.0225 41.3145 65.8493 41.6562 65.5029C42.0436 65.1201 42.2487 64.6029 42.2715 63.9512C42.3353 62.1875 41.859 61.3034 40.8428 61.2988ZM53.9199 67.5674C53.5462 67.5674 53.3275 67.3691 53.2637 66.9727C53.1816 66.4714 53.0996 65.765 53.0176 64.8535L52.7852 62.7344C52.7396 62.4199 52.6621 62.1123 52.5527 61.8115C52.3978 61.4014 52.2292 61.1963 52.0469 61.1963C51.8783 61.1963 51.5638 61.3398 51.1035 61.627C50.666 61.8913 50.3789 62.1032 50.2422 62.2627C50.2376 62.6911 50.249 63.1195 50.2764 63.5479L50.4814 65.373C50.568 66.0931 50.6113 66.6878 50.6113 67.1572C50.6113 67.3577 50.5475 67.5218 50.4199 67.6494C50.2969 67.7816 50.1374 67.8477 49.9414 67.8477C49.7454 67.8477 49.5837 67.7816 49.4561 67.6494C49.333 67.5218 49.2715 67.3577 49.2715 67.1572C49.2715 66.6058 49.2145 65.7923 49.1006 64.7168C48.9912 63.6367 48.9365 62.821 48.9365 62.2695C48.9365 61.7865 48.8682 61.4105 48.7314 61.1416C48.4124 61.2874 48.0889 61.5244 47.7607 61.8525L46.9541 62.7549C46.8812 62.8643 46.765 63.0078 46.6055 63.1855C46.6055 63.459 46.5804 63.8623 46.5303 64.3955C46.4801 64.9287 46.4551 65.3229 46.4551 65.5781C46.4551 65.7148 46.4756 65.9062 46.5166 66.1523C46.5622 66.3984 46.585 66.5762 46.585 66.6855C46.585 66.8724 46.5143 67.0296 46.373 67.1572C46.2363 67.2848 46.0745 67.3486 45.8877 67.3486C45.3727 67.3486 45.1152 66.763 45.1152 65.5918C45.1152 65.3184 45.1403 64.9105 45.1904 64.3682C45.2406 63.8258 45.2656 63.418 45.2656 63.1445C45.2656 62.903 45.2428 62.5407 45.1973 62.0576C45.1562 61.5745 45.1357 61.21 45.1357 60.9639C45.1357 59.9294 45.3682 59.4121 45.833 59.4121C46.0107 59.4121 46.1725 59.4896 46.3184 59.6445C46.4688 59.7995 46.5439 59.9681 46.5439 60.1504C46.5439 60.237 46.5326 60.3714 46.5098 60.5537C46.487 60.736 46.4756 60.875 46.4756 60.9707L46.4893 61.6885C46.7262 61.2008 47.0749 60.7611 47.5352 60.3691C47.9954 59.9727 48.3874 59.7744 48.7109 59.7744C49.4264 59.7744 49.9186 60.1299 50.1875 60.8408C50.4382 60.5081 50.7367 60.2598 51.083 60.0957C51.4294 59.9271 51.8258 59.8428 52.2725 59.8428C53.0335 59.8428 53.5531 60.2529 53.8311 61.0732C53.8857 61.2373 53.9792 61.8776 54.1113 62.9941C54.2389 63.778 54.403 65.0837 54.6035 66.9111C54.6172 67.0934 54.5557 67.2484 54.4189 67.376C54.2822 67.5036 54.1159 67.5674 53.9199 67.5674ZM59.3135 67.3145C58.2835 67.3145 57.4495 67.057 56.8115 66.542C56.1143 65.9723 55.7656 65.1748 55.7656 64.1494C55.7656 62.9645 56.0527 61.971 56.627 61.1689C57.2513 60.2939 58.0853 59.8564 59.1289 59.8564C59.8854 59.8564 60.5029 59.984 60.9814 60.2393C61.5693 60.5537 61.8633 61.0368 61.8633 61.6885C61.8633 62.1442 61.6058 62.5589 61.0908 62.9326C60.863 63.0967 60.3799 63.3519 59.6416 63.6982L57.0303 64.9355C57.2855 65.3138 57.6022 65.5986 57.9805 65.79C58.3633 65.9814 58.8076 66.0771 59.3135 66.0771C59.6279 66.0771 59.9971 66.0179 60.4209 65.8994C60.9587 65.749 61.305 65.5531 61.46 65.3115C61.6149 65.0654 61.7812 64.9424 61.959 64.9424C62.1185 64.9424 62.2598 65.0039 62.3828 65.127C62.5104 65.2454 62.5742 65.3844 62.5742 65.5439C62.5742 66.0498 62.1663 66.485 61.3506 66.8496C60.6533 67.1595 59.9743 67.3145 59.3135 67.3145ZM59.1289 61.0869C58.5729 61.0869 58.1104 61.3034 57.7412 61.7363C57.3721 62.1647 57.0964 62.8118 56.9141 63.6777L59.0127 62.6797C59.8376 62.2786 60.4255 61.93 60.7764 61.6338C60.3844 61.2692 59.8353 61.0869 59.1289 61.0869Z" fill="#6B6B6B"/>
</svg>
