<svg width="76" height="43" viewBox="0 0 76 43" fill="none" xmlns="http://www.w3.org/2000/svg">
<path d="M6.0498 24.9014C5.77637 24.9014 5.18066 24.8379 4.2627 24.7109C4.18457 26.1855 4.14551 28.7686 4.14551 32.46C4.14551 32.8506 4.01855 33.1826 3.76465 33.4561C3.51074 33.7197 3.19336 33.8516 2.8125 33.8516C2.42188 33.8516 2.09961 33.7197 1.8457 33.4561C1.5918 33.1826 1.46484 32.8506 1.46484 32.46V28.1533C1.46484 26.7178 1.55273 24.6963 1.72852 22.0889C1.92383 19.2666 2.03125 17.2451 2.05078 16.0244V14.0029C2.05078 13.0361 2.10938 12.333 2.22656 11.8936C2.45117 11.0342 2.92969 10.6631 3.66211 10.7803C3.97461 10.6826 4.41895 10.6094 4.99512 10.5605C5.57129 10.5117 6.2793 10.4873 7.11914 10.4873C8.90625 10.4873 10.5811 11.0977 12.1436 12.3184C13.8623 13.666 14.7217 15.2871 14.7217 17.1816C14.7217 19.6035 13.8037 21.5322 11.9678 22.9678C10.3271 24.2568 8.35449 24.9014 6.0498 24.9014ZM6.78223 13.2705C6.35254 13.2705 5.9668 13.2803 5.625 13.2998C5.29297 13.3193 5.00977 13.3486 4.77539 13.3877L4.74609 16.083L4.43848 21.9131L6.0498 22.1035C7.69043 22.1035 9.07227 21.6885 10.1953 20.8584C11.4258 19.9502 12.041 18.7246 12.041 17.1816C12.041 16.0879 11.4551 15.1455 10.2832 14.3545C9.19922 13.6318 8.03223 13.2705 6.78223 13.2705ZM36.2549 34.7158C35.4541 34.7158 34.9854 34.291 34.8486 33.4414C34.6729 32.3672 34.4971 30.8535 34.3213 28.9004L33.8232 24.3594C33.7256 23.6855 33.5596 23.0264 33.3252 22.3818C32.9932 21.5029 32.6318 21.0635 32.2412 21.0635C31.8799 21.0635 31.2061 21.3711 30.2197 21.9863C29.2822 22.5527 28.667 23.0068 28.374 23.3486C28.3643 24.2666 28.3887 25.1846 28.4473 26.1025L28.8867 30.0137C29.0723 31.5566 29.165 32.8311 29.165 33.8369C29.165 34.2666 29.0283 34.6182 28.7549 34.8916C28.4912 35.1748 28.1494 35.3164 27.7295 35.3164C27.3096 35.3164 26.9629 35.1748 26.6895 34.8916C26.4258 34.6182 26.2939 34.2666 26.2939 33.8369C26.2939 32.6553 26.1719 30.9121 25.9277 28.6074C25.6934 26.293 25.5762 24.5449 25.5762 23.3633C25.5762 22.3281 25.4297 21.5225 25.1367 20.9463C24.4531 21.2588 23.7598 21.7666 23.0566 22.4697L21.3281 24.4033C21.1719 24.6377 20.9229 24.9453 20.5811 25.3262C20.5811 25.9121 20.5273 26.7764 20.4199 27.9189C20.3125 29.0615 20.2588 29.9062 20.2588 30.4531C20.2588 30.7461 20.3027 31.1562 20.3906 31.6836C20.4883 32.2109 20.5371 32.5918 20.5371 32.8262C20.5371 33.2266 20.3857 33.5635 20.083 33.8369C19.79 34.1104 19.4434 34.2471 19.043 34.2471C17.9395 34.2471 17.3877 32.9922 17.3877 30.4824C17.3877 29.8965 17.4414 29.0225 17.5488 27.8604C17.6562 26.6982 17.71 25.8242 17.71 25.2383C17.71 24.7207 17.6611 23.9443 17.5635 22.9092C17.4756 21.874 17.4316 21.0928 17.4316 20.5654C17.4316 18.3486 17.9297 17.2402 18.9258 17.2402C19.3066 17.2402 19.6533 17.4062 19.9658 17.7383C20.2881 18.0703 20.4492 18.4316 20.4492 18.8223C20.4492 19.0078 20.4248 19.2959 20.376 19.6865C20.3271 20.0771 20.3027 20.375 20.3027 20.5801L20.332 22.1182C20.8398 21.0732 21.5869 20.1309 22.5732 19.291C23.5596 18.4414 24.3994 18.0166 25.0928 18.0166C26.626 18.0166 27.6807 18.7783 28.2568 20.3018C28.7939 19.5889 29.4336 19.0566 30.1758 18.7051C30.918 18.3438 31.7676 18.1631 32.7246 18.1631C34.3555 18.1631 35.4688 19.042 36.0645 20.7998C36.1816 21.1514 36.3818 22.5234 36.665 24.916C36.9385 26.5957 37.29 29.3936 37.7197 33.3096C37.749 33.7002 37.6172 34.0322 37.3242 34.3057C37.0312 34.5791 36.6748 34.7158 36.2549 34.7158ZM46.4648 34.3643C44.8242 34.3643 43.4131 33.7588 42.2314 32.5479C40.9131 31.2002 40.2197 29.3887 40.1514 27.1133C40.0928 24.9062 40.6494 22.9629 41.8213 21.2832C43.1885 19.3008 45.0928 18.3096 47.5342 18.3096C49.4873 18.3096 50.9668 19.2031 51.9727 20.9902C52.7734 22.4355 53.1592 24.1738 53.1299 26.2051C53.1006 28.373 52.5342 30.2236 51.4307 31.7568C50.1807 33.4951 48.5254 34.3643 46.4648 34.3643ZM47.3438 21.2832C45.9082 21.2734 44.79 21.957 43.9893 23.334C43.3545 24.4375 43.0371 25.6973 43.0371 27.1133C43.0371 28.5293 43.4229 29.6328 44.1943 30.4238C44.8389 31.0781 45.5957 31.4053 46.4648 31.4053C47.4805 31.4053 48.3545 31.0342 49.0869 30.292C49.917 29.4717 50.3564 28.3633 50.4053 26.9668C50.542 23.1875 49.5215 21.293 47.3438 21.2832ZM61.5674 14.9697C61.0986 14.9697 60.6934 14.8037 60.3516 14.4717C60.0195 14.1396 59.8535 13.7441 59.8535 13.2852C59.8535 12.8164 60.0195 12.416 60.3516 12.084C60.6934 11.752 61.0986 11.5859 61.5674 11.5859C62.0361 11.5859 62.4414 11.752 62.7832 12.084C63.125 12.416 63.2959 12.8164 63.2959 13.2852C63.2959 13.7441 63.125 14.1396 62.7832 14.4717C62.4414 14.8037 62.0361 14.9697 61.5674 14.9697ZM61.4502 36.8984C61.46 35.7559 61.2939 32.8311 60.9521 28.124L60.4541 20.0527C60.4541 19.5645 60.5908 19.1299 60.8643 18.749C61.1475 18.3682 61.5039 18.1777 61.9336 18.1777C62.2656 18.1777 62.5977 18.2998 62.9297 18.5439C63.2617 18.7881 63.4375 19.0371 63.457 19.291L63.9404 27.7285L64.3359 36.752C64.3359 38.1094 63.9307 39.3398 63.1201 40.4434C62.2412 41.6445 61.1719 42.2451 59.9121 42.2451C57.8125 42.2451 56.0547 40.6289 54.6387 37.3965C54.5215 37.1328 54.4629 36.8984 54.4629 36.6934C54.4629 36.3027 54.6143 35.9658 54.917 35.6826C55.2295 35.3994 55.5811 35.2578 55.9717 35.2578C56.5479 35.2578 57.1484 35.8926 57.7734 37.1621C57.9297 37.4941 58.2031 37.9727 58.5938 38.5977C58.9746 39.0859 59.4141 39.3301 59.9121 39.3301C60.3418 39.3301 60.708 39.0078 61.0107 38.3633C61.2451 37.875 61.3916 37.3867 61.4502 36.8984ZM71.6602 14.9551C71.1914 14.9551 70.7861 14.7891 70.4443 14.457C70.1025 14.125 69.9316 13.7246 69.9316 13.2559C69.9316 12.7871 70.1025 12.3867 70.4443 12.0547C70.7861 11.7227 71.1914 11.5566 71.6602 11.5566C72.1289 11.5566 72.5293 11.7227 72.8613 12.0547C73.2031 12.3867 73.374 12.7871 73.374 13.2559C73.374 13.7246 73.2031 14.125 72.8613 14.457C72.5293 14.7891 72.1289 14.9551 71.6602 14.9551ZM72.3193 26.8496C72.3193 27.4355 72.334 28.3145 72.3633 29.4863C72.4023 30.6484 72.4219 31.5225 72.4219 32.1084C72.4219 32.5381 72.29 32.8896 72.0264 33.1631C71.7627 33.4365 71.416 33.5732 70.9863 33.5732C70.5664 33.5732 70.2197 33.4365 69.9463 33.1631C69.6826 32.8896 69.5508 32.5381 69.5508 32.1084C69.5508 31.5225 69.5312 30.6484 69.4922 29.4863C69.4629 28.3145 69.4482 27.4355 69.4482 26.8496C69.4482 25.9316 69.4971 24.7891 69.5947 23.4219C69.6924 22.0449 69.7412 20.8975 69.7412 19.9795C69.7412 19.54 69.873 19.1836 70.1367 18.9102C70.4102 18.6367 70.7568 18.5 71.1768 18.5C71.5967 18.5 71.9385 18.6367 72.2021 18.9102C72.4756 19.1836 72.6123 19.54 72.6123 19.9795C72.6123 20.8975 72.5635 22.0449 72.4658 23.4219C72.3682 24.7891 72.3193 25.9316 72.3193 26.8496Z" fill="#1D7151"/>
</svg>
