<svg width="42" height="32" viewBox="0 0 42 32" fill="none" xmlns="http://www.w3.org/2000/svg">
<g clip-path="url(#clip0_23_809)">
<path d="M7.48382 31.8411V29.7231C7.48382 28.911 6.98951 28.3817 6.14223 28.3817C5.71867 28.3817 5.25974 28.5229 4.94199 28.9818C4.69499 28.5935 4.34203 28.3817 3.8125 28.3817C3.45938 28.3817 3.10657 28.4875 2.82404 28.8758V28.4523H2.08273V31.8411H2.82404V29.9701C2.82404 29.3701 3.14179 29.0876 3.6361 29.0876C4.13009 29.0876 4.37741 29.4054 4.37741 29.9701V31.8411H5.11871V29.9701C5.11871 29.3701 5.47152 29.0876 5.93045 29.0876C6.42476 29.0876 6.67176 29.4054 6.67176 29.9701V31.8411H7.48382ZM18.4621 28.4523H17.262V27.4286H16.5207V28.4523H15.85V29.1228H16.5205V30.6762C16.5205 31.4529 16.8383 31.9116 17.6855 31.9116C18.0033 31.9116 18.3561 31.8058 18.6034 31.6646L18.3915 31.0292C18.1797 31.1703 17.9327 31.2057 17.7561 31.2057C17.4032 31.2057 17.262 30.9939 17.262 30.6408V29.1228H18.4621V28.4523ZM24.7456 28.3815C24.3221 28.3815 24.0397 28.5935 23.8632 28.8758V28.4523H23.1218V31.8411H23.8632V29.9349C23.8632 29.3701 24.1102 29.0524 24.5691 29.0524C24.7103 29.0524 24.8868 29.0878 25.028 29.123L25.2398 28.4171C25.0986 28.3817 24.8868 28.3817 24.7456 28.3817V28.3815ZM15.2498 28.7346C14.8967 28.4875 14.4026 28.3817 13.873 28.3817C13.0259 28.3817 12.4612 28.8052 12.4612 29.4759C12.4612 30.0408 12.8847 30.3584 13.626 30.4644L13.979 30.4998C14.3674 30.5702 14.5791 30.6762 14.5791 30.8528C14.5791 31.0997 14.2968 31.2763 13.8025 31.2763C13.3083 31.2763 12.92 31.0997 12.6728 30.9233L12.3198 31.4881C12.7082 31.7705 13.2377 31.9116 13.7671 31.9116C14.7555 31.9116 15.3204 31.4529 15.3204 30.8174C15.3204 30.2173 14.8615 29.8995 14.1554 29.7937L13.8025 29.7583C13.4847 29.7229 13.2377 29.6525 13.2377 29.4407C13.2377 29.1936 13.4847 29.0524 13.873 29.0524C14.2968 29.0524 14.7203 29.2288 14.9321 29.3348L15.2498 28.7346ZM34.9475 28.3817C34.5238 28.3817 34.2414 28.5935 34.0649 28.8758V28.4523H33.3236V31.8411H34.0649V29.9349C34.0649 29.3701 34.312 29.0524 34.7708 29.0524C34.9122 29.0524 35.0887 29.0878 35.2299 29.123L35.4417 28.4171C35.3005 28.3817 35.0887 28.3817 34.9475 28.3817ZM25.487 30.1467C25.487 31.1703 26.1929 31.9116 27.2873 31.9116C27.7815 31.9116 28.1344 31.8058 28.4874 31.5235L28.1344 30.9233C27.8521 31.1351 27.5697 31.2409 27.2519 31.2409C26.6518 31.2409 26.2283 30.8174 26.2283 30.1467C26.2283 29.5113 26.6518 29.0876 27.2519 29.0524C27.5697 29.0524 27.8521 29.1582 28.1344 29.3701L28.4874 28.77C28.1344 28.4875 27.7815 28.3817 27.2873 28.3817C26.1929 28.3817 25.487 29.123 25.487 30.1467ZM32.3353 30.1467V28.4523H31.594V28.8758C31.3468 28.5582 30.9939 28.3817 30.5349 28.3817C29.5818 28.3817 28.8405 29.123 28.8405 30.1467C28.8405 31.1703 29.5818 31.9116 30.5349 31.9116C31.0291 31.9116 31.3822 31.7352 31.594 31.4175V31.8411H32.3353V30.1467ZM29.617 30.1467C29.617 29.5465 30.0054 29.0524 30.6407 29.0524C31.2408 29.0524 31.6646 29.5113 31.6646 30.1467C31.6646 30.7468 31.2408 31.2409 30.6407 31.2409C30.0054 31.2056 29.617 30.7468 29.617 30.1467ZM20.7567 28.3817C19.7683 28.3817 19.0622 29.0876 19.0622 30.1467C19.0622 31.2057 19.7681 31.9116 20.792 31.9116C21.2861 31.9116 21.7804 31.7705 22.1688 31.4529L21.8156 30.9233C21.5333 31.1351 21.1803 31.2763 20.8273 31.2763C20.3684 31.2763 19.9095 31.0645 19.8035 30.4642H22.3099V30.182C22.3453 29.0876 21.7098 28.3817 20.7566 28.3817H20.7567ZM20.7567 29.017C21.2155 29.017 21.5334 29.2995 21.6039 29.8291H19.8389C19.9095 29.3701 20.2272 29.017 20.7567 29.017ZM39.1482 30.1467V27.1108H38.4069V28.8758C38.1598 28.5582 37.8068 28.3817 37.3479 28.3817C36.3948 28.3817 35.6535 29.123 35.6535 30.1467C35.6535 31.1703 36.3948 31.9116 37.3479 31.9116C37.8422 31.9116 38.1951 31.7352 38.4069 31.4175V31.8411H39.1482V30.1467ZM36.4302 30.1467C36.4302 29.5465 36.8183 29.0524 37.4538 29.0524C38.054 29.0524 38.4775 29.5113 38.4775 30.1467C38.4775 30.7468 38.054 31.2409 37.4538 31.2409C36.8183 31.2056 36.4302 30.7468 36.4302 30.1467ZM11.6491 30.1467V28.4523H10.9078V28.8758C10.6607 28.5582 10.3077 28.3817 9.84876 28.3817C8.89568 28.3817 8.15437 29.123 8.15437 30.1467C8.15437 31.1703 8.89568 31.9116 9.84876 31.9116C10.3431 31.9116 10.696 31.7352 10.9078 31.4175V31.8411H11.6491V30.1467ZM8.89568 30.1467C8.89568 29.5465 9.28402 29.0524 9.91936 29.0524C10.5195 29.0524 10.9432 29.5113 10.9432 30.1467C10.9432 30.7468 10.5195 31.2409 9.91936 31.2409C9.28402 31.2056 8.89568 30.7468 8.89568 30.1467Z" fill="black"/>
<path d="M15.0027 2.71826H26.1223V22.6983H15.0027V2.71826Z" fill="#FF5F00"/>
<path d="M15.7088 12.7082C15.7088 8.64868 17.615 5.04796 20.5448 2.71807C18.3916 1.02368 15.6736 0 12.7083 0C5.6833 0 0 5.6833 0 12.7082C0 19.7329 5.6833 25.4164 12.7082 25.4164C15.6734 25.4164 18.3915 24.3927 20.5448 22.6981C17.615 20.4036 15.7088 16.7677 15.7088 12.7082Z" fill="#EB001B"/>
<path d="M41.125 12.7082C41.125 19.7329 35.4417 25.4164 28.4168 25.4164C25.4516 25.4164 22.7335 24.3927 20.5802 22.6981C23.5454 20.3684 25.4163 16.7677 25.4163 12.7082C25.4163 8.64868 23.51 5.04796 20.5802 2.71807C22.7333 1.02368 25.4516 0 28.4168 0C35.4417 0 41.1251 5.71867 41.1251 12.7082H41.125Z" fill="#F79E1B"/>
</g>
<defs>
<clipPath id="clip0_23_809">
<rect width="41.1658" height="32" fill="white"/>
</clipPath>
</defs>
</svg>
