<svg width="24" height="24" viewBox="0 0 24 24" fill="none" xmlns="http://www.w3.org/2000/svg">
<path d="M10 9C10 9.26522 9.89464 9.51957 9.70711 9.70711C9.51957 9.89464 9.26522 10 9 10C8.73478 10 8.48043 9.89464 8.29289 9.70711C8.10536 9.51957 8 9.26522 8 9C8 8.73478 8.10536 8.48043 8.29289 8.29289C8.48043 8.10536 8.73478 8 9 8C9.26522 8 9.51957 8.10536 9.70711 8.29289C9.89464 8.48043 10 8.73478 10 9ZM15 10C15.2652 10 15.5196 9.89464 15.7071 9.70711C15.8946 9.51957 16 9.26522 16 9C16 8.73478 15.8946 8.48043 15.7071 8.29289C15.5196 8.10536 15.2652 8 15 8C14.7348 8 14.4804 8.10536 14.2929 8.29289C14.1054 8.48043 14 8.73478 14 9C14 9.26522 14.1054 9.51957 14.2929 9.70711C14.4804 9.89464 14.7348 10 15 10ZM2 6C2 4.93913 2.42143 3.92172 3.17157 3.17157C3.92172 2.42143 4.93913 2 6 2H18C19.0609 2 20.0783 2.42143 20.8284 3.17157C21.5786 3.92172 22 4.93913 22 6V15C22.0002 15.1314 21.9746 15.2616 21.9245 15.3831C21.8744 15.5045 21.8008 15.615 21.708 15.708L15.708 21.708C15.615 21.8008 15.5045 21.8744 15.3831 21.9245C15.2616 21.9746 15.1314 22.0002 15 22H6C4.93913 22 3.92172 21.5786 3.17157 20.8284C2.42143 20.0783 2 19.0609 2 18V6ZM6 4C5.46957 4 4.96086 4.21071 4.58579 4.58579C4.21071 4.96086 4 5.46957 4 6V18C4 18.5304 4.21071 19.0391 4.58579 19.4142C4.96086 19.7893 5.46957 20 6 20H12V16.02H11.992C10.636 16.02 9.648 15.336 9.042 14.726C8.68444 14.3652 8.37763 13.9575 8.13 13.514L8.114 13.484L8.11 13.474L8.108 13.47L8.106 13.468C7.99222 13.228 7.97845 12.9526 8.06772 12.7024C8.15699 12.4522 8.34198 12.2478 8.582 12.134C8.82202 12.0202 9.09741 12.0065 9.34758 12.0957C9.59776 12.185 9.80222 12.37 9.916 12.61C9.936 12.65 9.97067 12.706 10.02 12.778C10.118 12.926 10.264 13.122 10.458 13.314C10.848 13.706 11.356 14.02 11.992 14.02C12.192 14.0209 12.3907 13.9884 12.58 13.924C13.28 12.77 14.55 12 16 12H20V6C20 5.46957 19.7893 4.96086 19.4142 4.58579C19.0391 4.21071 18.5304 4 18 4H6ZM20 14H16C15.4696 14 14.9609 14.2107 14.5858 14.5858C14.2107 14.9609 14 15.4696 14 16V20H14.586L20 14.586V14Z" fill="#1D7151"/>
</svg>
