<svg width="32" height="32" viewBox="0 0 32 32" fill="none" xmlns="http://www.w3.org/2000/svg">
<circle cx="16" cy="16" r="16" fill="#E8F1EE"/>
<path d="M18.25 20.25H22L20.9463 19.1963C20.6605 18.9105 20.5 18.523 20.5 18.1188V15.75C20.5 13.7907 19.2478 12.1238 17.5 11.5061V11.25C17.5 10.4216 16.8284 9.75 16 9.75C15.1716 9.75 14.5 10.4216 14.5 11.25V11.5061C12.7522 12.1238 11.5 13.7907 11.5 15.75V18.1188C11.5 18.523 11.3395 18.9105 11.0537 19.1963L10 20.25H13.75M18.25 20.25V21C18.25 22.2426 17.2426 23.25 16 23.25C14.7574 23.25 13.75 22.2426 13.75 21V20.25M18.25 20.25H13.75" stroke="#1D7151" stroke-linecap="round" stroke-linejoin="round"/>
</svg>
