<svg width="18" height="20" viewBox="0 0 18 20" fill="none" xmlns="http://www.w3.org/2000/svg">
<path d="M9.00004 0.399902C5.02359 0.399902 1.80004 3.62345 1.80004 7.5999V11.9028L0.951513 12.7514C0.608315 13.0946 0.505649 13.6107 0.691386 14.0591C0.877123 14.5075 1.31469 14.7999 1.80004 14.7999H16.2C16.6854 14.7999 17.123 14.5075 17.3087 14.0591C17.4944 13.6107 17.3918 13.0946 17.0486 12.7514L16.2 11.9028V7.5999C16.2 3.62345 12.9765 0.399902 9.00004 0.399902Z" fill="#1D7151"/>
<path d="M9.00001 19.5999C7.01178 19.5999 5.40001 17.9881 5.40001 15.9999H12.6C12.6 17.9881 10.9882 19.5999 9.00001 19.5999Z" fill="#1D7151"/>
</svg>
