<svg width="89" height="89" viewBox="0 0 89 89" fill="none" xmlns="http://www.w3.org/2000/svg">
<path d="M42 28C42 28.2652 41.8946 28.5196 41.7071 28.7071C41.5196 28.8946 41.2652 29 41 29C40.7348 29 40.4804 28.8946 40.2929 28.7071C40.1054 28.5196 40 28.2652 40 28C40 27.7348 40.1054 27.4804 40.2929 27.2929C40.4804 27.1054 40.7348 27 41 27C41.2652 27 41.5196 27.1054 41.7071 27.2929C41.8946 27.4804 42 27.7348 42 28ZM47 29C47.2652 29 47.5196 28.8946 47.7071 28.7071C47.8946 28.5196 48 28.2652 48 28C48 27.7348 47.8946 27.4804 47.7071 27.2929C47.5196 27.1054 47.2652 27 47 27C46.7348 27 46.4804 27.1054 46.2929 27.2929C46.1054 27.4804 46 27.7348 46 28C46 28.2652 46.1054 28.5196 46.2929 28.7071C46.4804 28.8946 46.7348 29 47 29ZM34 25C34 23.9391 34.4214 22.9217 35.1716 22.1716C35.9217 21.4214 36.9391 21 38 21H50C51.0609 21 52.0783 21.4214 52.8284 22.1716C53.5786 22.9217 54 23.9391 54 25V34C54.0002 34.1314 53.9746 34.2616 53.9245 34.3831C53.8744 34.5045 53.8008 34.615 53.708 34.708L47.708 40.708C47.615 40.8008 47.5045 40.8744 47.3831 40.9245C47.2616 40.9746 47.1314 41.0002 47 41H38C36.9391 41 35.9217 40.5786 35.1716 39.8284C34.4214 39.0783 34 38.0609 34 37V25ZM38 23C37.4696 23 36.9609 23.2107 36.5858 23.5858C36.2107 23.9609 36 24.4696 36 25V37C36 37.5304 36.2107 38.0391 36.5858 38.4142C36.9609 38.7893 37.4696 39 38 39H44V35.02H43.992C42.636 35.02 41.648 34.336 41.042 33.726C40.6844 33.3652 40.3776 32.9575 40.13 32.514L40.114 32.484L40.11 32.474L40.108 32.47L40.106 32.468C39.9922 32.228 39.9785 31.9526 40.0677 31.7024C40.157 31.4522 40.342 31.2478 40.582 31.134C40.822 31.0202 41.0974 31.0065 41.3476 31.0957C41.5978 31.185 41.8022 31.37 41.916 31.61C41.936 31.65 41.9707 31.706 42.02 31.778C42.118 31.926 42.264 32.122 42.458 32.314C42.848 32.706 43.356 33.02 43.992 33.02C44.192 33.0209 44.3907 32.9884 44.58 32.924C45.28 31.77 46.55 31 48 31H52V25C52 24.4696 51.7893 23.9609 51.4142 23.5858C51.0391 23.2107 50.5304 23 50 23H38ZM52 33H48C47.4696 33 46.9609 33.2107 46.5858 33.5858C46.2107 33.9609 46 34.4696 46 35V39H46.586L52 33.586V33Z" fill="#6B6B6B"/>
<path d="M22.2275 66.5674C21.9814 66.5674 21.7786 66.4398 21.6191 66.1846C21.4824 65.9658 21.3594 65.6012 21.25 65.0908L21.0039 63.915C20.8171 63.1859 20.5208 61.5771 20.1152 59.0889L18.748 63.2109L18.3447 64.5098C18.1807 65.0247 18.0098 65.4463 17.832 65.7744C17.6406 66.1208 17.3831 66.2939 17.0596 66.2939C16.7907 66.2939 16.5788 66.1481 16.4238 65.8564C16.3236 65.665 16.2324 65.4212 16.1504 65.125L15.9521 64.3662C15.4919 62.7575 15.0863 61.0348 14.7354 59.1982L14.4893 60.4219L13.6074 64.0312C13.571 64.4551 13.457 65.0817 13.2656 65.9111C13.1289 66.2666 12.9033 66.4443 12.5889 66.4443C12.3656 66.4443 12.1878 66.3646 12.0557 66.2051C11.9417 66.0684 11.8848 65.8997 11.8848 65.6992C11.8848 64.9382 12.042 64.0039 12.3564 62.8965L13.1084 60.1416L13.5049 57.9883C13.7054 56.9811 13.9173 56.3226 14.1406 56.0127C14.3229 55.7484 14.5485 55.6162 14.8174 55.6162C15.1136 55.6162 15.3346 55.7848 15.4805 56.1221C15.6582 56.5277 15.8496 57.3548 16.0547 58.6035C16.2962 60.1029 16.6722 61.7253 17.1826 63.4707C17.8571 61.7161 18.4404 59.8887 18.9326 57.9883L19.1377 56.9902C19.2197 56.5892 19.3268 56.2656 19.459 56.0195C19.6367 55.6823 19.8805 55.5137 20.1904 55.5137C20.5824 55.5137 20.8809 55.8919 21.0859 56.6484C21.1589 56.9082 21.2477 57.446 21.3525 58.2617C21.6214 60.3216 21.9564 62.0807 22.3574 63.5391L22.6924 64.7148C22.8656 65.3438 22.9521 65.7311 22.9521 65.877C22.9521 66.0729 22.877 66.237 22.7266 66.3691C22.5807 66.5013 22.4144 66.5674 22.2275 66.5674ZM30.3896 59.9023L28.0244 65.0156C27.4411 66.2598 26.9945 67.3011 26.6846 68.1396L26.2334 69.4658C26.1149 69.7939 25.9098 69.958 25.6182 69.958C25.4268 69.958 25.2604 69.8942 25.1191 69.7666C24.9824 69.6436 24.9141 69.4886 24.9141 69.3018C24.9141 68.846 25.4062 67.5267 26.3906 65.3438L23.9434 60.6338L23.6357 60.1348C23.5127 59.9251 23.4512 59.7497 23.4512 59.6084C23.4512 59.4215 23.5218 59.2575 23.6631 59.1162C23.8089 58.9749 23.9707 58.9043 24.1484 58.9043C24.3581 58.9043 24.5199 58.984 24.6338 59.1436C25.4085 60.2191 26.2402 61.7503 27.1289 63.7373L28.1406 61.3789C28.5052 60.5632 28.8561 59.8613 29.1934 59.2734C29.3392 59.0182 29.5306 58.8906 29.7676 58.8906C29.9544 58.8906 30.1185 58.9567 30.2598 59.0889C30.4056 59.221 30.4785 59.3783 30.4785 59.5605C30.4785 59.6608 30.4489 59.7747 30.3896 59.9023ZM37.7725 61.9873C37.6449 61.9873 37.3669 61.9577 36.9385 61.8984C36.902 62.5866 36.8838 63.792 36.8838 65.5146C36.8838 65.6969 36.8245 65.8519 36.7061 65.9795C36.5876 66.1025 36.4395 66.1641 36.2617 66.1641C36.0794 66.1641 35.929 66.1025 35.8105 65.9795C35.6921 65.8519 35.6328 65.6969 35.6328 65.5146V63.5049C35.6328 62.835 35.6738 61.8916 35.7559 60.6748C35.847 59.3577 35.8971 58.4144 35.9062 57.8447V56.9014C35.9062 56.4502 35.9336 56.1221 35.9883 55.917C36.0931 55.516 36.3164 55.3428 36.6582 55.3975C36.804 55.3519 37.0114 55.3177 37.2803 55.2949C37.5492 55.2721 37.8796 55.2607 38.2715 55.2607C39.1055 55.2607 39.887 55.5456 40.6162 56.1152C41.4183 56.7441 41.8193 57.5007 41.8193 58.3848C41.8193 59.515 41.391 60.415 40.5342 61.085C39.7686 61.6865 38.848 61.9873 37.7725 61.9873ZM38.1143 56.5596C37.9137 56.5596 37.7337 56.5641 37.5742 56.5732C37.4193 56.5824 37.2871 56.596 37.1777 56.6143L37.1641 57.8721L37.0205 60.5928L37.7725 60.6816C38.5381 60.6816 39.1829 60.488 39.707 60.1006C40.2812 59.6768 40.5684 59.1048 40.5684 58.3848C40.5684 57.8743 40.2949 57.4346 39.748 57.0654C39.2422 56.7282 38.6976 56.5596 38.1143 56.5596ZM51.8682 66.5674C51.4945 66.5674 51.2757 66.3691 51.2119 65.9727C51.1299 65.4714 51.0479 64.765 50.9658 63.8535L50.7334 61.7344C50.6878 61.4199 50.6104 61.1123 50.501 60.8115C50.346 60.4014 50.1774 60.1963 49.9951 60.1963C49.8265 60.1963 49.512 60.3398 49.0518 60.627C48.6143 60.8913 48.3271 61.1032 48.1904 61.2627C48.1859 61.6911 48.1973 62.1195 48.2246 62.5479L48.4297 64.373C48.5163 65.0931 48.5596 65.6878 48.5596 66.1572C48.5596 66.3577 48.4958 66.5218 48.3682 66.6494C48.2451 66.7816 48.0856 66.8477 47.8896 66.8477C47.6937 66.8477 47.5319 66.7816 47.4043 66.6494C47.2812 66.5218 47.2197 66.3577 47.2197 66.1572C47.2197 65.6058 47.1628 64.7923 47.0488 63.7168C46.9395 62.6367 46.8848 61.821 46.8848 61.2695C46.8848 60.7865 46.8164 60.4105 46.6797 60.1416C46.3607 60.2874 46.0371 60.5244 45.709 60.8525L44.9023 61.7549C44.8294 61.8643 44.7132 62.0078 44.5537 62.1855C44.5537 62.459 44.5286 62.8623 44.4785 63.3955C44.4284 63.9287 44.4033 64.3229 44.4033 64.5781C44.4033 64.7148 44.4238 64.9062 44.4648 65.1523C44.5104 65.3984 44.5332 65.5762 44.5332 65.6855C44.5332 65.8724 44.4626 66.0296 44.3213 66.1572C44.1846 66.2848 44.0228 66.3486 43.8359 66.3486C43.321 66.3486 43.0635 65.763 43.0635 64.5918C43.0635 64.3184 43.0885 63.9105 43.1387 63.3682C43.1888 62.8258 43.2139 62.418 43.2139 62.1445C43.2139 61.903 43.1911 61.5407 43.1455 61.0576C43.1045 60.5745 43.084 60.21 43.084 59.9639C43.084 58.9294 43.3164 58.4121 43.7812 58.4121C43.959 58.4121 44.1208 58.4896 44.2666 58.6445C44.417 58.7995 44.4922 58.9681 44.4922 59.1504C44.4922 59.237 44.4808 59.3714 44.458 59.5537C44.4352 59.736 44.4238 59.875 44.4238 59.9707L44.4375 60.6885C44.6745 60.2008 45.0231 59.7611 45.4834 59.3691C45.9437 58.9727 46.3356 58.7744 46.6592 58.7744C47.3747 58.7744 47.8669 59.1299 48.1357 59.8408C48.3864 59.5081 48.6849 59.2598 49.0312 59.0957C49.3776 58.9271 49.7741 58.8428 50.2207 58.8428C50.9818 58.8428 51.5013 59.2529 51.7793 60.0732C51.834 60.2373 51.9274 60.8776 52.0596 61.9941C52.1872 62.778 52.3512 64.0837 52.5518 65.9111C52.5654 66.0934 52.5039 66.2484 52.3672 66.376C52.2305 66.5036 52.0641 66.5674 51.8682 66.5674ZM56.6328 66.4033C55.8672 66.4033 55.2087 66.1208 54.6572 65.5557C54.042 64.9268 53.7184 64.0814 53.6865 63.0195C53.6592 61.9896 53.9189 61.0827 54.4658 60.2988C55.1038 59.3737 55.9925 58.9111 57.1318 58.9111C58.0433 58.9111 58.7337 59.3281 59.2031 60.1621C59.5768 60.8366 59.7568 61.6478 59.7432 62.5957C59.7295 63.6074 59.4652 64.471 58.9502 65.1865C58.3669 65.9977 57.5944 66.4033 56.6328 66.4033ZM57.043 60.2988C56.373 60.2943 55.8512 60.6133 55.4775 61.2559C55.1813 61.7708 55.0332 62.3587 55.0332 63.0195C55.0332 63.6803 55.2132 64.1953 55.5732 64.5645C55.874 64.8698 56.2272 65.0225 56.6328 65.0225C57.1068 65.0225 57.5146 64.8493 57.8564 64.5029C58.2438 64.1201 58.4489 63.6029 58.4717 62.9512C58.5355 61.1875 58.0592 60.3034 57.043 60.2988ZM63.6807 57.3525C63.4619 57.3525 63.2728 57.2751 63.1133 57.1201C62.9583 56.9652 62.8809 56.7806 62.8809 56.5664C62.8809 56.3477 62.9583 56.1608 63.1133 56.0059C63.2728 55.8509 63.4619 55.7734 63.6807 55.7734C63.8994 55.7734 64.0885 55.8509 64.248 56.0059C64.4076 56.1608 64.4873 56.3477 64.4873 56.5664C64.4873 56.7806 64.4076 56.9652 64.248 57.1201C64.0885 57.2751 63.8994 57.3525 63.6807 57.3525ZM63.626 67.5859C63.6305 67.0527 63.5531 65.6878 63.3936 63.4912L63.1611 59.7246C63.1611 59.4967 63.2249 59.2939 63.3525 59.1162C63.4847 58.9385 63.651 58.8496 63.8516 58.8496C64.0065 58.8496 64.1615 58.9066 64.3164 59.0205C64.4714 59.1344 64.5534 59.2507 64.5625 59.3691L64.7881 63.3066L64.9727 67.5176C64.9727 68.151 64.7835 68.7253 64.4053 69.2402C63.9951 69.8008 63.4961 70.0811 62.9082 70.0811C61.9284 70.0811 61.1081 69.3268 60.4473 67.8184C60.3926 67.6953 60.3652 67.5859 60.3652 67.4902C60.3652 67.3079 60.4359 67.1507 60.5771 67.0186C60.723 66.8864 60.887 66.8203 61.0693 66.8203C61.3382 66.8203 61.6185 67.1165 61.9102 67.709C61.9831 67.8639 62.1107 68.0872 62.293 68.3789C62.4707 68.6068 62.6758 68.7207 62.9082 68.7207C63.1087 68.7207 63.2796 68.5703 63.4209 68.2695C63.5303 68.0417 63.5986 67.8138 63.626 67.5859ZM68.3906 57.3457C68.1719 57.3457 67.9827 57.2682 67.8232 57.1133C67.6637 56.9583 67.584 56.7715 67.584 56.5527C67.584 56.334 67.6637 56.1471 67.8232 55.9922C67.9827 55.8372 68.1719 55.7598 68.3906 55.7598C68.6094 55.7598 68.7962 55.8372 68.9512 55.9922C69.1107 56.1471 69.1904 56.334 69.1904 56.5527C69.1904 56.7715 69.1107 56.9583 68.9512 57.1133C68.7962 57.2682 68.6094 57.3457 68.3906 57.3457ZM68.6982 62.8965C68.6982 63.1699 68.7051 63.5801 68.7188 64.127C68.737 64.6693 68.7461 65.0771 68.7461 65.3506C68.7461 65.5511 68.6846 65.7152 68.5615 65.8428C68.4385 65.9704 68.2767 66.0342 68.0762 66.0342C67.8802 66.0342 67.7184 65.9704 67.5908 65.8428C67.4678 65.7152 67.4062 65.5511 67.4062 65.3506C67.4062 65.0771 67.3971 64.6693 67.3789 64.127C67.3652 63.5801 67.3584 63.1699 67.3584 62.8965C67.3584 62.4681 67.3812 61.9349 67.4268 61.2969C67.4723 60.6543 67.4951 60.1188 67.4951 59.6904C67.4951 59.4854 67.5566 59.319 67.6797 59.1914C67.8073 59.0638 67.9691 59 68.165 59C68.361 59 68.5205 59.0638 68.6436 59.1914C68.7712 59.319 68.835 59.4854 68.835 59.6904C68.835 60.1188 68.8122 60.6543 68.7666 61.2969C68.721 61.9349 68.6982 62.4681 68.6982 62.8965ZM75.623 60.7363C75.3724 60.7363 75.1969 60.652 75.0967 60.4834C75.0283 60.3649 74.9691 60.1188 74.9189 59.7451C74.5771 59.8317 74.0508 59.9912 73.3398 60.2236C72.6061 60.5153 72.237 60.8753 72.2324 61.3037C72.3691 61.3538 72.5036 61.3903 72.6357 61.4131C73.6839 61.5999 74.4632 61.8574 74.9736 62.1855C75.7165 62.6641 76.0879 63.3568 76.0879 64.2637C76.0879 65.0065 75.7666 65.5671 75.124 65.9453C74.5908 66.2552 73.9163 66.4102 73.1006 66.4102C72.5036 66.4102 71.9339 66.3099 71.3916 66.1094C70.6898 65.8542 70.3389 65.4987 70.3389 65.043C70.3389 64.8607 70.4095 64.7012 70.5508 64.5645C70.6966 64.4277 70.8607 64.3594 71.043 64.3594C71.1842 64.3594 71.3665 64.4688 71.5898 64.6875C71.6992 64.7923 71.9453 64.8789 72.3281 64.9473C72.6335 65.002 72.891 65.0293 73.1006 65.0293C73.4834 65.0293 73.8206 64.9837 74.1123 64.8926C74.5361 64.7604 74.748 64.5508 74.748 64.2637C74.748 63.6439 74.3151 63.2246 73.4492 63.0059L72.7383 62.8486C72.1322 62.7165 71.7015 62.5615 71.4463 62.3838C71.0771 62.1286 70.8926 61.7435 70.8926 61.2285C70.8926 60.276 71.3415 59.597 72.2393 59.1914C72.5127 59.0684 72.9502 58.9225 73.5518 58.7539C74.1533 58.5807 74.584 58.4349 74.8438 58.3164C75.0306 58.2344 75.2334 58.1934 75.4521 58.1934C75.6481 58.1934 75.8076 58.2572 75.9307 58.3848C76.0583 58.5124 76.1221 58.6787 76.1221 58.8838C76.1221 59.016 76.1494 59.2096 76.2041 59.4648C76.2633 59.7201 76.293 59.9137 76.293 60.0459C76.293 60.251 76.2292 60.4173 76.1016 60.5449C75.9785 60.6725 75.819 60.7363 75.623 60.7363Z" fill="#6B6B6B"/>
</svg>
