<svg width="89" height="90" viewBox="0 0 89 90" fill="none" xmlns="http://www.w3.org/2000/svg">
<path d="M54 40C54 37.2386 50.4183 35 46 35C41.5817 35 38 37.2386 38 40M46 32C43.2386 32 41 29.7614 41 27C41 24.2386 43.2386 22 46 22C48.7614 22 51 24.2386 51 27C51 29.7614 48.7614 32 46 32Z" stroke="#6B6B6B" stroke-width="2" stroke-linecap="round" stroke-linejoin="round"/>
<path d="M27.2822 67.2393C26.8265 67.2393 26.3252 67.1663 25.7783 67.0205L25.7646 70.2881C25.7646 70.4886 25.7008 70.6527 25.5732 70.7803C25.4502 70.9079 25.2907 70.9717 25.0947 70.9717C24.8988 70.9717 24.737 70.9079 24.6094 70.7803C24.4863 70.6527 24.4248 70.4886 24.4248 70.2881L24.4453 67.5537V64.8262C24.4316 63.8281 24.3975 62.9189 24.3428 62.0986L24.2402 60.7109C24.2402 60.3874 24.2995 60.1139 24.418 59.8906C24.5547 59.6217 24.7529 59.4873 25.0127 59.4873C25.1904 59.4873 25.3385 59.5511 25.457 59.6787C25.5801 59.8018 25.6416 59.9544 25.6416 60.1367C25.6416 60.1777 25.6348 60.2529 25.6211 60.3623C25.5983 60.5036 25.5824 60.6335 25.5732 60.752C25.9652 60.4831 26.3434 60.2826 26.708 60.1504C27.0726 60.0137 27.4212 59.9453 27.7539 59.9453C28.6882 59.9453 29.3717 60.36 29.8047 61.1895C30.1465 61.8457 30.3174 62.7139 30.3174 63.7939C30.3174 64.7783 30.0531 65.5895 29.5244 66.2275C28.9639 66.902 28.2165 67.2393 27.2822 67.2393ZM27.7539 61.3125C27.3346 61.3125 26.9564 61.4059 26.6191 61.5928C26.3776 61.7249 26.0723 61.9665 25.7031 62.3174C25.7624 63.3519 25.792 64.4388 25.792 65.5781C26.2887 65.7695 26.7855 65.8652 27.2822 65.8652C27.8519 65.8652 28.2871 65.6533 28.5879 65.2295C28.8477 64.8604 28.9775 64.3818 28.9775 63.7939C28.9775 62.9645 28.875 62.3447 28.6699 61.9346C28.4694 61.5199 28.1641 61.3125 27.7539 61.3125ZM37.1875 61.9482C37.1556 62.5179 36.9277 62.8027 36.5039 62.8027C36.112 62.8027 35.916 62.5771 35.916 62.126C35.916 62.0394 35.9092 61.8799 35.8955 61.6475L35.875 61.0732C35.1549 61.1598 34.5785 61.3626 34.1455 61.6816C33.7399 61.9779 33.4027 62.4245 33.1338 63.0215L33.1475 66.7676C33.1475 67.2279 32.9219 67.458 32.4707 67.458C32.0697 67.458 31.8691 67.2279 31.8691 66.7676V61.9688C31.8691 61.8184 31.8737 61.5928 31.8828 61.292C31.8965 60.9912 31.9033 60.7656 31.9033 60.6152C31.9033 60.1549 32.1038 59.9248 32.5049 59.9248C32.9515 59.9248 33.1771 60.3031 33.1816 61.0596C34.0566 60.2165 35.0273 59.7949 36.0938 59.7949C36.4629 59.7949 36.7386 59.9339 36.9209 60.2119C37.1032 60.4899 37.1943 60.9092 37.1943 61.4697C37.1943 61.7067 37.1921 61.8662 37.1875 61.9482ZM41.1592 67.4033C40.3936 67.4033 39.735 67.1208 39.1836 66.5557C38.5684 65.9268 38.2448 65.0814 38.2129 64.0195C38.1855 62.9896 38.4453 62.0827 38.9922 61.2988C39.6302 60.3737 40.5189 59.9111 41.6582 59.9111C42.5697 59.9111 43.2601 60.3281 43.7295 61.1621C44.1032 61.8366 44.2832 62.6478 44.2695 63.5957C44.2559 64.6074 43.9915 65.471 43.4766 66.1865C42.8932 66.9977 42.1208 67.4033 41.1592 67.4033ZM41.5693 61.2988C40.8994 61.2943 40.3776 61.6133 40.0039 62.2559C39.7077 62.7708 39.5596 63.3587 39.5596 64.0195C39.5596 64.6803 39.7396 65.1953 40.0996 65.5645C40.4004 65.8698 40.7536 66.0225 41.1592 66.0225C41.6331 66.0225 42.041 65.8493 42.3828 65.5029C42.7702 65.1201 42.9753 64.6029 42.998 63.9512C43.0618 62.1875 42.5856 61.3034 41.5693 61.2988ZM50.5586 57.3887C49.4557 57.3887 48.8382 58.1543 48.7061 59.6855L48.6855 60.1094C49.4603 60.0547 49.9616 60.0273 50.1895 60.0273C50.9141 60.0273 51.2764 60.2552 51.2764 60.7109C51.2764 61.0436 51.0986 61.2419 50.7432 61.3057C50.5882 61.333 50.4059 61.3444 50.1963 61.3398C49.9912 61.3307 49.4671 61.3604 48.624 61.4287L48.5693 62.9873C48.5693 63.2699 48.5785 63.6937 48.5967 64.2588C48.6149 64.8239 48.624 65.2454 48.624 65.5234C48.624 66.3893 48.5739 67.0638 48.4736 67.5469C48.3962 67.9115 48.1842 68.0938 47.8379 68.0938C47.651 68.0938 47.4915 68.0322 47.3594 67.9092C47.2272 67.7907 47.1611 67.6403 47.1611 67.458C47.1611 67.4215 47.1657 67.376 47.1748 67.3213C47.2705 66.7288 47.3184 66.084 47.3184 65.3867L47.2979 63.5205V61.5381C46.7282 61.5837 46.3682 61.6064 46.2178 61.6064C45.7575 61.6064 45.5273 61.3854 45.5273 60.9434C45.5273 60.4922 45.9261 60.2552 46.7236 60.2324L47.3799 60.2119C47.3936 59.9567 47.4277 59.6104 47.4824 59.1729C47.6009 58.1611 47.8561 57.416 48.248 56.9375C48.722 56.3587 49.4626 56.0693 50.4697 56.0693C51.1214 56.0693 51.4473 56.2904 51.4473 56.7324C51.4473 57.1699 51.151 57.3887 50.5586 57.3887ZM54.3936 58.3457C54.1748 58.3457 53.9857 58.2682 53.8262 58.1133C53.6667 57.9583 53.5869 57.7715 53.5869 57.5527C53.5869 57.334 53.6667 57.1471 53.8262 56.9922C53.9857 56.8372 54.1748 56.7598 54.3936 56.7598C54.6123 56.7598 54.7992 56.8372 54.9541 56.9922C55.1136 57.1471 55.1934 57.334 55.1934 57.5527C55.1934 57.7715 55.1136 57.9583 54.9541 58.1133C54.7992 58.2682 54.6123 58.3457 54.3936 58.3457ZM54.7012 63.8965C54.7012 64.1699 54.708 64.5801 54.7217 65.127C54.7399 65.6693 54.749 66.0771 54.749 66.3506C54.749 66.5511 54.6875 66.7152 54.5645 66.8428C54.4414 66.9704 54.2796 67.0342 54.0791 67.0342C53.8831 67.0342 53.7214 66.9704 53.5938 66.8428C53.4707 66.7152 53.4092 66.5511 53.4092 66.3506C53.4092 66.0771 53.4001 65.6693 53.3818 65.127C53.3682 64.5801 53.3613 64.1699 53.3613 63.8965C53.3613 63.4681 53.3841 62.9349 53.4297 62.2969C53.4753 61.6543 53.498 61.1188 53.498 60.6904C53.498 60.4854 53.5596 60.319 53.6826 60.1914C53.8102 60.0638 53.972 60 54.168 60C54.3639 60 54.5234 60.0638 54.6465 60.1914C54.7741 60.319 54.8379 60.4854 54.8379 60.6904C54.8379 61.1188 54.8151 61.6543 54.7695 62.2969C54.724 62.9349 54.7012 63.4681 54.7012 63.8965ZM58.748 61.627L58.6455 65.0244C58.6455 65.3844 58.6273 65.9131 58.5908 66.6104C58.5452 67.0661 58.3219 67.2939 57.9209 67.2939C57.4743 67.2939 57.251 67.0615 57.251 66.5967C57.251 66.0452 57.276 65.2181 57.3262 64.1152C57.3763 63.0078 57.4014 62.1784 57.4014 61.627C57.4014 60.9069 57.4128 60.0843 57.4355 59.1592C57.4583 58.2295 57.4697 57.4046 57.4697 56.6846C57.4697 56.2288 57.693 56.001 58.1396 56.001C58.5908 56.001 58.8164 56.2288 58.8164 56.6846C58.8164 57.4046 58.805 58.2295 58.7822 59.1592C58.7594 60.0843 58.748 60.9069 58.748 61.627ZM64.0459 67.3145C63.016 67.3145 62.182 67.057 61.5439 66.542C60.8467 65.9723 60.498 65.1748 60.498 64.1494C60.498 62.9645 60.7852 61.971 61.3594 61.1689C61.9837 60.2939 62.8177 59.8564 63.8613 59.8564C64.6178 59.8564 65.2354 59.984 65.7139 60.2393C66.3018 60.5537 66.5957 61.0368 66.5957 61.6885C66.5957 62.1442 66.3382 62.5589 65.8232 62.9326C65.5954 63.0967 65.1123 63.3519 64.374 63.6982L61.7627 64.9355C62.0179 65.3138 62.3346 65.5986 62.7129 65.79C63.0957 65.9814 63.54 66.0771 64.0459 66.0771C64.3604 66.0771 64.7295 66.0179 65.1533 65.8994C65.6911 65.749 66.0374 65.5531 66.1924 65.3115C66.3473 65.0654 66.5137 64.9424 66.6914 64.9424C66.8509 64.9424 66.9922 65.0039 67.1152 65.127C67.2428 65.2454 67.3066 65.3844 67.3066 65.5439C67.3066 66.0498 66.8988 66.485 66.083 66.8496C65.3857 67.1595 64.7067 67.3145 64.0459 67.3145ZM63.8613 61.0869C63.3053 61.0869 62.8428 61.3034 62.4736 61.7363C62.1045 62.1647 61.8288 62.8118 61.6465 63.6777L63.7451 62.6797C64.57 62.2786 65.1579 61.93 65.5088 61.6338C65.1169 61.2692 64.5677 61.0869 63.8613 61.0869Z" fill="#6B6B6B"/>
</svg>
